<?xml version="1.0" standalone="no"?><!-- Generator: Gravit.io --><svg xmlns="http://www.w3.org/2000/svg" xmlns:xlink="http://www.w3.org/1999/xlink" style="isolation:isolate" viewBox="677.382 9.486 80.953 80.953" width="80.953" height="80.953"><rect x="691.358" y="23.462" width="53" height="53" transform="matrix(0.707,-0.707,0.707,0.707,174.927,522.236)" fill="none" vector-effect="non-scaling-stroke" stroke-width="2" stroke="rgb(235,235,235)" stroke-linejoin="miter" stroke-linecap="square" stroke-miterlimit="3"/><clipPath id="_clipPath_mciWYzb4KJuMoWpBjXfC83GKwiQfklJY"><rect x="691.358" y="23.462" width="53" height="53" transform="matrix(0.707,-0.707,0.707,0.707,174.927,522.236)" fill="none" vector-effect="non-scaling-stroke" stroke-width="2" stroke="rgb(235,235,235)" stroke-linejoin="miter" stroke-linecap="square" stroke-miterlimit="3"/></clipPath><g clip-path="url(#_clipPath_mciWYzb4KJuMoWpBjXfC83GKwiQfklJY)"><g id="Grupo"><path d=" M 740.52 56.047 L 740.52 56.047 Q 740.585 55.98 740.873 56.276 L 740.873 56.276 L 740.873 56.276 Q 741.16 56.573 741.095 56.641 L 741.095 56.641 L 741.095 56.641 Q 740.419 57.338 739.978 57.694 L 739.978 57.694 L 738.469 59.153 L 737.165 60.598 L 737.165 60.598 Q 736.886 60.985 736.297 61.593 L 736.297 61.593 L 736.297 61.593 Q 736.253 61.638 735.966 61.341 L 735.966 61.341 L 735.966 61.341 Q 735.678 61.044 735.722 60.999 L 735.722 60.999 L 735.722 60.999 Q 736.485 60.211 736.582 59.568 L 736.582 59.568 L 736.582 59.568 Q 736.678 58.924 736.127 58.108 L 736.127 58.108 L 736.127 58.108 Q 735.576 57.292 734.095 55.853 L 734.095 55.853 L 711.442 33.236 L 732.167 65.163 L 732.167 65.163 Q 732.315 65.406 732.184 65.541 L 732.184 65.541 L 732.184 65.541 Q 732.075 65.653 731.796 65.546 L 731.796 65.546 L 700.839 44.576 L 700.721 44.499 L 721.631 66.443 L 721.631 66.443 Q 724.101 69.037 725.452 69.621 L 725.452 69.621 L 725.452 69.621 Q 726.803 70.205 727.872 69.102 L 727.872 69.102 L 727.872 69.102 Q 727.915 69.057 728.203 69.354 L 728.203 69.354 L 728.203 69.354 Q 728.49 69.651 728.447 69.696 L 728.447 69.696 L 728.447 69.696 Q 727.836 70.326 727.461 70.614 L 727.461 70.614 L 726.235 71.78 L 725.215 72.933 L 725.215 72.933 Q 724.979 73.275 724.412 73.86 L 724.412 73.86 L 724.412 73.86 Q 724.369 73.905 724.081 73.608 L 724.081 73.608 L 724.081 73.608 Q 723.794 73.311 723.837 73.266 L 723.837 73.266 L 723.837 73.266 Q 724.753 72.321 724.152 70.913 L 724.152 70.913 L 724.152 70.913 Q 723.552 69.505 721.13 66.96 L 721.13 66.96 L 698.634 43.29 L 698.634 43.29 Q 696.281 42.257 695.19 43.382 L 695.19 43.382 L 695.19 43.382 Q 695.147 43.427 694.859 43.131 L 694.859 43.131 L 694.859 43.131 Q 694.572 42.834 694.615 42.789 L 694.615 42.789 L 695.405 42.073 L 695.405 42.073 Q 695.671 41.897 696.02 41.537 L 696.02 41.537 L 696.02 41.537 Q 696.369 41.177 696.561 40.88 L 696.561 40.88 L 696.561 40.88 Q 696.753 40.583 696.883 40.448 L 696.883 40.448 L 696.883 40.448 Q 697.189 40.133 697.818 40.422 L 697.818 40.422 L 697.818 40.422 Q 698.448 40.712 700.378 41.984 L 700.378 41.984 L 728.574 60.958 L 708.876 30.542 L 708.876 30.542 Q 708.458 29.886 708.308 29.348 L 708.308 29.348 L 708.308 29.348 Q 708.158 28.811 708.332 28.631 L 708.332 28.631 L 708.332 28.631 Q 708.419 28.541 708.663 28.387 L 708.663 28.387 L 708.663 28.387 Q 708.908 28.234 709.257 27.874 L 709.257 27.874 L 710.19 26.812 L 710.19 26.812 Q 710.36 26.537 710.818 26.065 L 710.818 26.065 L 710.818 26.065 Q 710.862 26.02 711.149 26.316 L 711.149 26.316 L 711.149 26.316 Q 711.437 26.613 711.393 26.658 L 711.393 26.658 L 711.393 26.658 Q 710.259 27.829 710.437 28.98 L 710.437 28.98 L 710.437 28.98 Q 710.615 30.132 712.554 32.088 L 712.554 32.088 L 735.251 54.66 L 735.251 54.66 Q 736.758 56.171 737.57 56.717 L 737.57 56.717 L 737.57 56.717 Q 738.383 57.263 739.026 57.094 L 739.026 57.094 L 739.026 57.094 Q 739.669 56.925 740.52 56.047 L 740.52 56.047 Z " fill="rgb(235,235,235)"/><path d=" M 711.963 73.353 L 711.963 73.353 Q 712.029 73.421 711.741 73.718 L 711.741 73.718 L 711.741 73.718 Q 711.454 74.014 711.388 73.947 L 711.388 73.947 L 711.388 73.947 Q 710.712 73.249 710.368 72.794 L 710.368 72.794 L 708.954 71.237 L 707.554 69.891 L 707.554 69.891 Q 707.179 69.602 706.591 68.995 L 706.591 68.995 L 706.591 68.995 Q 706.547 68.95 706.835 68.653 L 706.835 68.653 L 706.835 68.653 Q 707.122 68.356 707.166 68.401 L 707.166 68.401 L 707.166 68.401 Q 707.929 69.189 708.552 69.288 L 708.552 69.288 L 708.552 69.288 Q 709.176 69.388 709.967 68.819 L 709.967 68.819 L 709.967 68.819 Q 710.757 68.25 712.151 66.722 L 712.151 66.722 L 734.063 43.339 L 703.132 64.732 L 703.132 64.732 Q 702.896 64.885 702.766 64.75 L 702.766 64.75 L 702.766 64.75 Q 702.657 64.637 702.761 64.349 L 702.761 64.349 L 723.077 32.395 L 723.151 32.274 L 701.892 53.857 L 701.892 53.857 Q 699.378 56.406 698.813 57.801 L 698.813 57.801 L 698.813 57.801 Q 698.247 59.195 699.315 60.298 L 699.315 60.298 L 699.315 60.298 Q 699.359 60.343 699.071 60.64 L 699.071 60.64 L 699.071 60.64 Q 698.784 60.937 698.74 60.891 L 698.74 60.891 L 698.74 60.891 Q 698.13 60.261 697.85 59.874 L 697.85 59.874 L 696.721 58.609 L 695.604 57.556 L 695.604 57.556 Q 695.273 57.313 694.706 56.727 L 694.706 56.727 L 694.706 56.727 Q 694.662 56.682 694.95 56.386 L 694.95 56.386 L 694.95 56.386 Q 695.237 56.089 695.281 56.134 L 695.281 56.134 L 695.281 56.134 Q 696.197 57.079 697.561 56.459 L 697.561 56.459 L 697.561 56.459 Q 698.925 55.839 701.39 53.339 L 701.39 53.339 L 724.322 30.119 L 724.322 30.119 Q 725.323 27.69 724.233 26.565 L 724.233 26.565 L 724.233 26.565 Q 724.189 26.52 724.477 26.223 L 724.477 26.223 L 724.477 26.223 Q 724.764 25.926 724.808 25.971 L 724.808 25.971 L 725.502 26.786 L 725.502 26.786 Q 725.672 27.061 726.021 27.421 L 726.021 27.421 L 726.021 27.421 Q 726.369 27.781 726.657 27.979 L 726.657 27.979 L 726.657 27.979 Q 726.945 28.177 727.076 28.312 L 727.076 28.312 L 727.076 28.312 Q 727.381 28.627 727.1 29.277 L 727.1 29.277 L 727.1 29.277 Q 726.82 29.927 725.587 31.92 L 725.587 31.92 L 707.205 61.023 L 736.672 40.691 L 736.672 40.691 Q 737.309 40.259 737.829 40.104 L 737.829 40.104 L 737.829 40.104 Q 738.35 39.949 738.525 40.129 L 738.525 40.129 L 738.525 40.129 Q 738.612 40.219 738.76 40.471 L 738.76 40.471 L 738.76 40.471 Q 738.908 40.724 739.257 41.084 L 739.257 41.084 L 740.287 42.047 L 740.287 42.047 Q 740.553 42.223 741.011 42.695 L 741.011 42.695 L 741.011 42.695 Q 741.054 42.74 740.767 43.037 L 740.767 43.037 L 740.767 43.037 Q 740.479 43.334 740.436 43.289 L 740.436 43.289 L 740.436 43.289 Q 739.302 42.118 738.186 42.302 L 738.186 42.302 L 738.186 42.302 Q 737.07 42.486 735.175 44.487 L 735.175 44.487 L 713.307 67.915 L 713.307 67.915 Q 711.843 69.47 711.314 70.309 L 711.314 70.309 L 711.314 70.309 Q 710.785 71.148 710.949 71.812 L 710.949 71.812 L 710.949 71.812 Q 711.113 72.475 711.963 73.353 L 711.963 73.353 Z " fill="rgb(235,235,235)"/></g></g></svg>