<?xml version="1.0" standalone="no"?><!-- Generator: Gravit.io --><svg xmlns="http://www.w3.org/2000/svg" xmlns:xlink="http://www.w3.org/1999/xlink" style="isolation:isolate" viewBox="638.087 280.096 164.184 164.184" width="164.184" height="164.184"><g id="Logo" filter="url(#ZKsa7LPZnm5iTMBeVqmDuI6bWGU6hsfP)"><path d=" M 791.4 378.976 L 791.4 378.976 Q 791.609 378.767 792.525 379.684 L 792.525 379.684 L 792.525 379.684 Q 793.441 380.6 793.233 380.808 L 793.233 380.808 L 793.233 380.808 Q 791.078 382.963 789.675 384.061 L 789.675 384.061 L 784.865 388.565 L 780.709 393.026 L 780.709 393.026 Q 779.82 394.221 777.943 396.098 L 777.943 396.098 L 777.943 396.098 Q 777.804 396.237 776.888 395.321 L 776.888 395.321 L 776.888 395.321 Q 775.971 394.404 776.11 394.265 L 776.11 394.265 L 776.11 394.265 Q 778.543 391.833 778.85 389.846 L 778.85 389.846 L 778.85 389.846 Q 779.156 387.86 777.401 385.339 L 777.401 385.339 L 777.401 385.339 Q 775.645 382.819 770.924 378.376 L 770.924 378.376 L 698.73 308.545 L 764.781 407.121 L 764.781 407.121 Q 765.253 407.871 764.836 408.288 L 764.836 408.288 L 764.836 408.288 Q 764.489 408.636 763.6 408.303 L 763.6 408.303 L 664.939 343.557 L 664.564 343.321 L 731.203 411.072 L 731.203 411.072 Q 739.075 419.083 743.38 420.887 L 743.38 420.887 L 743.38 420.887 Q 747.686 422.69 751.091 419.285 L 751.091 419.285 L 751.091 419.285 Q 751.23 419.146 752.146 420.062 L 752.146 420.062 L 752.146 420.062 Q 753.063 420.978 752.924 421.117 L 752.924 421.117 L 752.924 421.117 Q 750.978 423.063 749.783 423.953 L 749.783 423.953 L 745.877 427.553 L 742.624 431.111 L 742.624 431.111 Q 741.874 432.167 740.067 433.974 L 740.067 433.974 L 740.067 433.974 Q 739.928 434.113 739.011 433.197 L 739.011 433.197 L 739.011 433.197 Q 738.095 432.281 738.234 432.142 L 738.234 432.142 L 738.234 432.142 Q 741.153 429.223 739.238 424.876 L 739.238 424.876 L 739.238 424.876 Q 737.324 420.529 729.605 412.671 L 729.605 412.671 L 657.912 339.588 L 657.912 339.588 Q 650.413 336.398 646.938 339.873 L 646.938 339.873 L 646.938 339.873 Q 646.799 340.011 645.883 339.095 L 645.883 339.095 L 645.883 339.095 Q 644.966 338.179 645.105 338.04 L 645.105 338.04 L 647.621 335.83 L 647.621 335.83 Q 648.469 335.287 649.581 334.175 L 649.581 334.175 L 649.581 334.175 Q 650.693 333.063 651.304 332.146 L 651.304 332.146 L 651.304 332.146 Q 651.916 331.229 652.333 330.812 L 652.333 330.812 L 652.333 330.812 Q 653.306 329.839 655.313 330.734 L 655.313 330.734 L 655.313 330.734 Q 657.32 331.629 663.471 335.556 L 663.471 335.556 L 753.329 394.14 L 690.552 300.228 L 690.552 300.228 Q 689.22 298.201 688.742 296.541 L 688.742 296.541 L 688.742 296.541 Q 688.263 294.882 688.82 294.326 L 688.82 294.326 L 688.82 294.326 Q 689.097 294.048 689.876 293.575 L 689.876 293.575 L 689.876 293.575 Q 690.654 293.102 691.766 291.99 L 691.766 291.99 L 694.741 288.71 L 694.741 288.71 Q 695.283 287.862 696.742 286.403 L 696.742 286.403 L 696.742 286.403 Q 696.881 286.264 697.798 287.18 L 697.798 287.18 L 697.798 287.18 Q 698.714 288.096 698.575 288.235 L 698.575 288.235 L 698.575 288.235 Q 694.961 291.849 695.528 295.405 L 695.528 295.405 L 695.528 295.405 Q 696.096 298.961 702.274 305 L 702.274 305 L 774.608 374.693 L 774.608 374.693 Q 779.411 379.358 782.001 381.044 L 782.001 381.044 L 782.001 381.044 Q 784.591 382.73 786.64 382.208 L 786.64 382.208 L 786.64 382.208 Q 788.69 381.686 791.4 378.976 L 791.4 378.976 Z " fill="rgb(244,244,244)"/><path d=" M 700.392 432.409 L 700.392 432.409 Q 700.6 432.618 699.684 433.534 L 699.684 433.534 L 699.684 433.534 Q 698.768 434.451 698.559 434.242 L 698.559 434.242 L 698.559 434.242 Q 696.405 432.088 695.307 430.684 L 695.307 430.684 L 690.803 425.875 L 686.341 421.719 L 686.341 421.719 Q 685.146 420.829 683.27 418.953 L 683.27 418.953 L 683.27 418.953 Q 683.131 418.814 684.047 417.897 L 684.047 417.897 L 684.047 417.897 Q 684.963 416.981 685.102 417.12 L 685.102 417.12 L 685.102 417.12 Q 687.535 419.552 689.522 419.859 L 689.522 419.859 L 689.522 419.859 Q 691.508 420.166 694.028 418.41 L 694.028 418.41 L 694.028 418.41 Q 696.549 416.654 700.991 411.934 L 700.991 411.934 L 770.823 339.739 L 672.246 405.791 L 672.246 405.791 Q 671.496 406.263 671.079 405.846 L 671.079 405.846 L 671.079 405.846 Q 670.732 405.498 671.065 404.609 L 671.065 404.609 L 735.811 305.948 L 736.047 305.574 L 668.295 372.213 L 668.295 372.213 Q 660.284 380.085 658.481 384.39 L 658.481 384.39 L 658.481 384.39 Q 656.678 388.695 660.083 392.101 L 660.083 392.101 L 660.083 392.101 Q 660.222 392.24 659.306 393.156 L 659.306 393.156 L 659.306 393.156 Q 658.39 394.072 658.251 393.933 L 658.251 393.933 L 658.251 393.933 Q 656.305 391.987 655.415 390.792 L 655.415 390.792 L 651.815 386.886 L 648.257 383.634 L 648.257 383.634 Q 647.2 382.883 645.393 381.076 L 645.393 381.076 L 645.393 381.076 Q 645.254 380.937 646.171 380.021 L 646.171 380.021 L 646.171 380.021 Q 647.087 379.105 647.226 379.244 L 647.226 379.244 L 647.226 379.244 Q 650.145 382.162 654.492 380.248 L 654.492 380.248 L 654.492 380.248 Q 658.839 378.333 666.697 370.614 L 666.697 370.614 L 739.779 298.922 L 739.779 298.922 Q 742.97 291.422 739.495 287.947 L 739.495 287.947 L 739.495 287.947 Q 739.356 287.808 740.272 286.892 L 740.272 286.892 L 740.272 286.892 Q 741.189 285.976 741.328 286.115 L 741.328 286.115 L 743.538 288.63 L 743.538 288.63 Q 744.08 289.478 745.192 290.59 L 745.192 290.59 L 745.192 290.59 Q 746.304 291.702 747.221 292.314 L 747.221 292.314 L 747.221 292.314 Q 748.139 292.925 748.556 293.342 L 748.556 293.342 L 748.556 293.342 Q 749.529 294.315 748.634 296.322 L 748.634 296.322 L 748.634 296.322 Q 747.739 298.329 743.811 304.481 L 743.811 304.481 L 685.228 394.338 L 779.139 331.562 L 779.139 331.562 Q 781.167 330.23 782.826 329.751 L 782.826 329.751 L 782.826 329.751 Q 784.486 329.273 785.042 329.829 L 785.042 329.829 L 785.042 329.829 Q 785.32 330.107 785.793 330.885 L 785.793 330.885 L 785.793 330.885 Q 786.266 331.663 787.378 332.775 L 787.378 332.775 L 790.658 335.75 L 790.658 335.75 Q 791.505 336.292 792.965 337.752 L 792.965 337.752 L 792.965 337.752 Q 793.104 337.891 792.187 338.807 L 792.187 338.807 L 792.187 338.807 Q 791.271 339.723 791.132 339.584 L 791.132 339.584 L 791.132 339.584 Q 787.518 335.97 783.962 336.538 L 783.962 336.538 L 783.962 336.538 Q 780.407 337.105 774.367 343.284 L 774.367 343.284 L 704.675 415.617 L 704.675 415.617 Q 700.01 420.421 698.324 423.011 L 698.324 423.011 L 698.324 423.011 Q 696.637 425.6 697.159 427.65 L 697.159 427.65 L 697.159 427.65 Q 697.682 429.699 700.392 432.409 L 700.392 432.409 Z " fill="rgb(244,244,244)"/></g><defs><filter id="ZKsa7LPZnm5iTMBeVqmDuI6bWGU6hsfP" x="-200%" y="-200%" width="400%" height="400%"><feOffset xmlns="http://www.w3.org/2000/svg" in="SourceAlpha" result="offOut" dx="1" dy="2"/><feGaussianBlur xmlns="http://www.w3.org/2000/svg" in="offOut" result="blurOut" stdDeviation="1.5"/><feComponentTransfer xmlns="http://www.w3.org/2000/svg" in="blurOut" result="opacOut"><feFuncA xmlns="http://www.w3.org/2000/svg" type="table" tableValues="0 0.5"/></feComponentTransfer><feBlend xmlns="http://www.w3.org/2000/svg" in="SourceGraphic" in2="opacOut" mode="normal"/></filter></defs></svg>